<svg width="14" height="14" viewBox="0 0 14 14" fill="none" xmlns="http://www.w3.org/2000/svg">
<g id="material-symbols:chat">
<path id="Vector" d="M1.16669 12.8332V2.33317C1.16669 2.01234 1.28102 1.73759 1.50969 1.50892C1.73835 1.28025 2.01291 1.16612 2.33335 1.1665H11.6667C11.9875 1.1665 12.2623 1.28084 12.4909 1.5095C12.7196 1.73817 12.8337 2.01273 12.8334 2.33317V9.33317C12.8334 9.65401 12.719 9.92875 12.4904 10.1574C12.2617 10.3861 11.9871 10.5002 11.6667 10.4998H3.50002L1.16669 12.8332ZM3.50002 8.1665H8.16669V6.99984H3.50002V8.1665ZM3.50002 6.4165H10.5V5.24984H3.50002V6.4165ZM3.50002 4.6665H10.5V3.49984H3.50002V4.6665Z" fill="#2F4058"/>
</g>
</svg>
