<svg width="16" height="16" viewBox="0 0 16 16" fill="none" xmlns="http://www.w3.org/2000/svg">
<g id="ri:admin-fill">
<path id="Vector" d="M8.00002 9.33366V14.667H2.66669C2.66669 13.2525 3.22859 11.896 4.22878 10.8958C5.22898 9.89556 6.58553 9.33366 8.00002 9.33366ZM8.00002 8.66699C5.79002 8.66699 4.00002 6.87699 4.00002 4.66699C4.00002 2.45699 5.79002 0.666992 8.00002 0.666992C10.21 0.666992 12 2.45699 12 4.66699C12 6.87699 10.21 8.66699 8.00002 8.66699ZM14 11.3337H14.6667V14.667H9.33335V11.3337H10V10.667C10 10.1366 10.2107 9.62785 10.5858 9.25278C10.9609 8.87771 11.4696 8.66699 12 8.66699C12.5305 8.66699 13.0392 8.87771 13.4142 9.25278C13.7893 9.62785 14 10.1366 14 10.667V11.3337ZM12.6667 11.3337V10.667C12.6667 10.4902 12.5964 10.3206 12.4714 10.1956C12.3464 10.0706 12.1768 10.0003 12 10.0003C11.8232 10.0003 11.6536 10.0706 11.5286 10.1956C11.4036 10.3206 11.3334 10.4902 11.3334 10.667V11.3337H12.6667Z" fill="#2F4058"/>
</g>
</svg>
